<svg xmlns="http://www.w3.org/2000/svg" width="42" height="31" viewBox="0 0 42 31" fill="none">
<g clip-path="url(#clip0_203_1661)">
<path d="M20.7647 20.4119C14.3052 20.4119 8.85504 21.4673 8.85504 25.5411C8.85504 29.6164 14.3404 30.6348 20.7647 30.6348C27.2241 30.6348 32.6743 29.5793 32.6743 25.5056C32.6743 21.4303 27.1889 20.4119 20.7647 20.4119Z" fill="white"/>
<path opacity="0.4" d="M20.7647 16.5306C25.1386 16.5306 28.6458 13.0033 28.6458 8.60419C28.6458 4.20342 25.1386 0.677734 20.7647 0.677734C16.3908 0.677734 12.8836 4.20342 12.8836 8.60419C12.8836 13.0033 16.3908 16.5306 20.7647 16.5306Z" fill="white"/>
<path opacity="0.4" d="M37.8756 10.4499C39.0072 5.99852 35.6894 2.00073 31.4647 2.00073C31.0054 2.00073 30.5661 2.05132 30.137 2.1373C30.08 2.15079 30.0163 2.17946 29.9827 2.23005C29.9442 2.29411 29.9727 2.38011 30.0146 2.43575C31.2837 4.22641 32.0129 6.40657 32.0129 8.7469C32.0129 10.9895 31.344 13.0802 30.1705 14.8153C30.0498 14.994 30.1571 15.2351 30.37 15.2722C30.6651 15.3245 30.9668 15.3515 31.2753 15.3598C34.3516 15.4408 37.1128 13.4495 37.8756 10.4499Z" fill="white"/>
<path d="M41.0984 20.9307C40.5351 19.7233 39.1755 18.8955 37.1084 18.4891C36.1327 18.2497 33.4923 17.9125 31.0363 17.958C30.9994 17.9631 30.9793 17.9884 30.9759 18.0052C30.9709 18.0288 30.9809 18.0693 31.0295 18.0946C32.1645 18.6594 36.5518 21.1161 36.0003 26.2976C35.9768 26.5218 36.1562 26.7157 36.3792 26.682C37.4588 26.5269 40.2367 25.9266 41.0984 24.0567C41.5745 23.0686 41.5745 21.9204 41.0984 20.9307Z" fill="white"/>
<path opacity="0.4" d="M11.5825 2.13779C11.155 2.05011 10.7141 2.00122 10.2547 2.00122C6.03006 2.00122 2.71233 5.99901 3.84562 10.4504C4.60674 13.45 7.36789 15.4412 10.4442 15.3603C10.7526 15.352 11.0561 15.3233 11.3495 15.2727C11.5624 15.2356 11.6697 14.9944 11.549 14.8157C10.3754 13.079 9.70653 10.99 9.70653 8.74739C9.70653 6.40536 10.4375 4.22521 11.7066 2.43624C11.7468 2.3806 11.777 2.2946 11.7367 2.23053C11.7032 2.17826 11.6412 2.15128 11.5825 2.13779Z" fill="white"/>
<path d="M4.61138 18.4882C2.54429 18.8946 1.18635 19.7225 0.623055 20.9298C0.145261 21.9195 0.145261 23.0677 0.623055 24.0575C1.48477 25.9258 4.26268 26.5277 5.34232 26.6811C5.56529 26.7148 5.743 26.5227 5.71953 26.2967C5.16797 21.1169 9.55527 18.6603 10.6919 18.0954C10.7389 18.0684 10.7489 18.0297 10.7439 18.0043C10.7405 17.9875 10.7221 17.9622 10.6852 17.9588C8.22753 17.9116 5.58877 18.2488 4.61138 18.4882Z" fill="white"/>
</g>
<defs>
<clipPath id="clip0_203_1661">
<rect width="41.4706" height="30.8824" fill="white" transform="translate(0.264709)"/>
</clipPath>
</defs>
</svg>