<svg xmlns="http://www.w3.org/2000/svg" width="34" height="39" viewBox="0 0 34 39" fill="none">
<path d="M17.1662 38.4119C16.9284 38.4119 16.6906 38.358 16.476 38.2483L9.56037 34.7119C7.59801 33.7074 6.06293 32.58 4.86424 31.2667C2.24068 28.3946 0.780987 24.7076 0.757788 20.8829L0.676587 8.29468C0.666919 6.84184 1.6162 5.53781 3.03529 5.0467L15.7336 0.673287C16.4876 0.407273 17.3287 0.403552 18.0962 0.660265L30.8428 4.88487C32.2696 5.3555 33.2343 6.65023 33.242 8.10122L33.3232 20.6987C33.3485 24.5178 31.939 28.2196 29.3561 31.1236C28.1709 32.4555 26.6494 33.5995 24.7062 34.6227L17.8525 38.2389C17.6399 38.3524 17.404 38.41 17.1662 38.4119Z" fill="white"/>
<path d="M15.6925 23.8442C15.3212 23.8461 14.9501 23.714 14.6639 23.4424L10.9828 19.9452C10.4144 19.402 10.4086 18.5202 10.9712 17.9733C11.5338 17.4245 12.4522 17.419 13.0225 17.9602L15.6712 20.4753L22.1382 14.1765C22.7028 13.6278 23.6212 13.6222 24.1896 14.1635C24.7599 14.7068 24.7657 15.5903 24.2032 16.1354L16.7152 23.4294C16.4329 23.7047 16.0636 23.8424 15.6925 23.8442Z" fill="#5B3585"/>
</svg>