<svg xmlns="http://www.w3.org/2000/svg" width="40" height="40" viewBox="0 0 40 40" fill="none">
<path d="M15.4706 16.3602C15.2307 16.3602 14.9961 16.2891 14.7966 16.1558C14.5971 16.0225 14.4416 15.833 14.3497 15.6113C14.2579 15.3896 14.2339 15.1457 14.2807 14.9103C14.3275 14.675 14.443 14.4588 14.6127 14.2891C14.7824 14.1194 14.9986 14.0039 15.2339 13.9571C15.4693 13.9103 15.7132 13.9343 15.9349 14.0261C16.1566 14.1179 16.3461 14.2734 16.4794 14.473C16.6127 14.6725 16.6838 14.907 16.6838 15.147C16.6838 15.4688 16.556 15.7774 16.3285 16.0049C16.101 16.2324 15.7924 16.3602 15.4706 16.3602ZM25.1765 23.6396C24.9365 23.6396 24.702 23.7108 24.5025 23.8441C24.3029 23.9774 24.1474 24.1669 24.0556 24.3886C23.9638 24.6103 23.9398 24.8542 23.9866 25.0896C24.0334 25.3249 24.1489 25.5411 24.3186 25.7108C24.4883 25.8804 24.7045 25.996 24.9398 26.0428C25.1751 26.0896 25.4191 26.0656 25.6408 25.9738C25.8625 25.8819 26.0519 25.7264 26.1853 25.5269C26.3186 25.3274 26.3897 25.0928 26.3897 24.8529C26.3897 24.5311 26.2619 24.2225 26.0344 23.995C25.8069 23.7675 25.4983 23.6396 25.1765 23.6396ZM37.3088 19.9999C37.3088 21.5832 36.1699 22.7707 35.1645 23.8186C34.5927 24.4161 34.0013 25.0318 33.7783 25.5732C33.5721 26.0692 33.5599 26.8911 33.5478 27.6873C33.5251 29.1675 33.5008 30.8447 32.3346 32.011C31.1684 33.1772 29.4911 33.2015 28.0109 33.2242C27.2147 33.2363 26.3928 33.2485 25.8969 33.4547C25.3554 33.6777 24.7397 34.2691 24.1422 34.8408C23.0943 35.8463 21.9068 36.9852 20.3236 36.9852C18.7403 36.9852 17.5528 35.8463 16.5049 34.8408C15.9074 34.2691 15.2917 33.6777 14.7503 33.4547C14.2543 33.2485 13.4324 33.2363 12.6362 33.2242C11.156 33.2015 9.47874 33.1772 8.31252 32.011C7.1463 30.8447 7.12203 29.1675 7.09929 27.6873C7.08715 26.8911 7.07502 26.0692 6.86877 25.5732C6.64584 25.0318 6.05439 24.4161 5.48265 23.8186C4.47718 22.7707 3.33826 21.5832 3.33826 19.9999C3.33826 18.4167 4.47718 17.2292 5.48265 16.1813C6.05439 15.5838 6.64584 14.968 6.86877 14.4266C7.07502 13.9307 7.08715 13.1088 7.09929 12.3126C7.12203 10.8324 7.1463 9.15514 8.31252 7.98891C9.47874 6.82269 11.156 6.79843 12.6362 6.77568C13.4324 6.76355 14.2543 6.75141 14.7503 6.54516C15.2917 6.32223 15.9074 5.73078 16.5049 5.15904C17.5528 4.15357 18.7403 3.01465 20.3236 3.01465C21.9068 3.01465 23.0943 4.15357 24.1422 5.15904C24.7397 5.73078 25.3554 6.32223 25.8969 6.54516C26.3928 6.75141 27.2147 6.76355 28.0109 6.77568C29.4911 6.79843 31.1684 6.82269 32.3346 7.98891C33.5008 9.15514 33.5251 10.8324 33.5478 12.3126C33.5599 13.1088 33.5721 13.9307 33.7783 14.4266C34.0013 14.968 34.5927 15.5838 35.1645 16.1813C36.1699 17.2292 37.3088 18.4167 37.3088 19.9999ZM15.4706 18.7867C16.1905 18.7867 16.8942 18.5732 17.4927 18.1733C18.0913 17.7734 18.5578 17.2049 18.8333 16.5399C19.1087 15.8748 19.1808 15.143 19.0404 14.4369C18.8999 13.7309 18.5533 13.0824 18.0443 12.5733C17.5352 12.0643 16.8867 11.7177 16.1807 11.5772C15.4746 11.4368 14.7428 11.5089 14.0778 11.7844C13.4127 12.0598 12.8442 12.5263 12.4443 13.1249C12.0444 13.7234 11.8309 14.4271 11.8309 15.147C11.8309 16.1123 12.2144 17.0381 12.8969 17.7207C13.5795 18.4032 14.5053 18.7867 15.4706 18.7867ZM27.2481 14.7921C27.3608 14.6794 27.4502 14.5456 27.5112 14.3983C27.5722 14.251 27.6036 14.0932 27.6036 13.9338C27.6036 13.7744 27.5722 13.6165 27.5112 13.4692C27.4502 13.3219 27.3608 13.1881 27.2481 13.0754C27.1354 12.9627 27.0015 12.8733 26.8543 12.8123C26.707 12.7513 26.5491 12.7199 26.3897 12.7199C26.2303 12.7199 26.0725 12.7513 25.9252 12.8123C25.7779 12.8733 25.6441 12.9627 25.5314 13.0754L13.399 25.2078C13.2863 25.3205 13.1969 25.4543 13.1359 25.6016C13.0749 25.7489 13.0435 25.9067 13.0435 26.0661C13.0435 26.2255 13.0749 26.3834 13.1359 26.5307C13.1969 26.6779 13.2863 26.8118 13.399 26.9245C13.6267 27.1521 13.9354 27.28 14.2574 27.28C14.4168 27.28 14.5746 27.2486 14.7219 27.1876C14.8692 27.1266 15.003 27.0372 15.1157 26.9245L27.2481 14.7921ZM28.8162 24.8529C28.8162 24.133 28.6027 23.4293 28.2028 22.8308C27.8029 22.2322 27.2344 21.7657 26.5693 21.4902C25.9043 21.2148 25.1725 21.1427 24.4664 21.2831C23.7604 21.4236 23.1119 21.7702 22.6028 22.2792C22.0938 22.7882 21.7472 23.4368 21.6067 24.1428C21.4663 24.8488 21.5384 25.5807 21.8138 26.2457C22.0893 26.9108 22.5558 27.4793 23.1544 27.8792C23.7529 28.2791 24.4566 28.4926 25.1765 28.4926C26.1418 28.4926 27.0676 28.1091 27.7502 27.4265C28.4327 26.744 28.8162 25.8182 28.8162 24.8529Z" fill="white"/>
</svg>