<svg width="30" height="30" viewBox="0 0 30 30" fill="none" xmlns="http://www.w3.org/2000/svg">
<g clip-path="url(#clip0_303_2808)">
<path d="M15 30C23.2843 30 30 23.2843 30 15C30 6.71573 23.2843 0 15 0C6.71573 0 0 6.71573 0 15C0 23.2843 6.71573 30 15 30Z" fill="#F0F0F0"/>
<path d="M24.1334 3.09978C18.7632 -1.0326 11.2369 -1.0326 5.8667 3.09972L15.0001 12.2331L24.1334 3.09978Z" fill="#D80027"/>
<path d="M14.9999 17.7672L5.8667 26.9004C11.2369 31.0328 18.7632 31.0328 24.1334 26.9004L15.0001 17.7671L14.9999 17.7672Z" fill="#D80027"/>
<path d="M12.2331 15.0001L3.09978 5.8667C-1.03261 11.2369 -1.03261 18.7632 3.09978 24.1334L12.2331 15.0001Z" fill="#6DA544"/>
<path d="M17.7671 15.0001L26.9003 24.1334C31.0327 18.7632 31.0327 11.2369 26.9003 5.8667L17.7671 15.0001Z" fill="#6DA544"/>
<path d="M15 21.5217C18.6018 21.5217 21.5217 18.6018 21.5217 15C21.5217 11.3981 18.6018 8.47827 15 8.47827C11.3981 8.47827 8.47827 11.3981 8.47827 15C8.47827 18.6018 11.3981 21.5217 15 21.5217Z" fill="#F0F0F0"/>
<path d="M15 10.4348L15.5648 11.4131H16.6944L16.1296 12.3913L16.6944 13.3696H15.5648L15 14.3479L14.4352 13.3696H13.3057L13.8704 12.3913L13.3057 11.4131H14.4352L15 10.4348Z" fill="#D80027"/>
<path d="M12.1292 15L12.694 15.9783H13.8236L13.2588 16.9565L13.8236 17.9348H12.694L12.1292 18.9131L11.5644 17.9348H10.4348L10.9996 16.9565L10.4348 15.9783H11.5644L12.1292 15Z" fill="#D80027"/>
<path d="M17.8709 15L18.4357 15.9783H19.5653L19.0005 16.9565L19.5653 17.9348H18.4357L17.8709 18.9131L17.3061 17.9348H16.1765L16.7413 16.9565L16.1765 15.9783H17.3061L17.8709 15Z" fill="#D80027"/>
</g>
<defs>
<clipPath id="clip0_303_2808">
<rect width="30" height="30" fill="white"/>
</clipPath>
</defs>
</svg>
