<svg width="30" height="30" viewBox="0 0 30 30" fill="none" xmlns="http://www.w3.org/2000/svg">
<g clip-path="url(#clip0_113_241)">
<path d="M15 30C23.2843 30 30 23.2843 30 15C30 6.71573 23.2843 0 15 0C6.71573 0 0 6.71573 0 15C0 23.2843 6.71573 30 15 30Z" fill="#F0F0F0"/>
<path d="M30 14.9999C30 9.05297 26.5392 3.91453 21.5217 1.48828V28.5114C26.5392 26.0852 30 20.9468 30 14.9999Z" fill="#D80027"/>
<path d="M0 14.9999C0 20.9468 3.46084 26.0852 8.47828 28.5115V1.48828C3.46084 3.91453 0 9.05297 0 14.9999Z" fill="#D80027"/>
<path d="M17.6088 16.9563L20.2174 15.6519L18.9131 14.9998V13.6954L16.3044 14.9998L17.6088 12.3911H16.3044L15.0001 10.4346L13.6957 12.3911H12.3914L13.6957 14.9998L11.087 13.6954V14.9998L9.78271 15.6519L12.3914 16.9563L11.7392 18.2606H14.3479V20.2171H15.6522V18.2606H18.2609L17.6088 16.9563Z" fill="#D80027"/>
</g>
<defs>
<clipPath id="clip0_113_241">
<rect width="30" height="30" fill="white"/>
</clipPath>
</defs>
</svg>
