<svg width="30" height="30" viewBox="0 0 30 30" fill="none" xmlns="http://www.w3.org/2000/svg">
<g clip-path="url(#clip0_113_181)">
<path d="M15 30C23.2843 30 30 23.2843 30 15C30 6.71573 23.2843 0 15 0C6.71573 0 0 6.71573 0 15C0 23.2843 6.71573 30 15 30Z" fill="#0052B4"/>
<path d="M15.0001 5.86963L15.4858 7.3643H17.0573L15.7858 8.28803L16.2715 9.7827L15.0001 8.85891L13.7286 9.7827L14.2143 8.28803L12.9429 7.3643H14.5144L15.0001 5.86963Z" fill="#FFDA44"/>
<path d="M8.54367 8.54373L9.94406 9.25717L11.0553 8.146L10.8094 9.69814L12.2097 10.4116L10.6575 10.6575L10.4116 12.2098L9.69814 10.8094L8.146 11.0554L9.25723 9.94412L8.54367 8.54373Z" fill="#FFDA44"/>
<path d="M5.86963 15.0001L7.3643 14.5144V12.9429L8.28797 14.2144L9.78269 13.7287L8.85885 15.0001L9.78269 16.2715L8.28797 15.7859L7.3643 17.0573V15.4858L5.86963 15.0001Z" fill="#FFDA44"/>
<path d="M8.54367 21.4563L9.25717 20.0559L8.146 18.9446L9.6982 19.1906L10.4116 17.7903L10.6575 19.3425L12.2096 19.5884L10.8095 20.3018L11.0553 21.854L9.94406 20.7428L8.54367 21.4563Z" fill="#FFDA44"/>
<path d="M15.0001 24.1305L14.5144 22.6358H12.9429L14.2144 21.7121L13.7286 20.2175L15.0001 21.1412L16.2715 20.2175L15.7858 21.7121L17.0573 22.6358H15.4857L15.0001 24.1305Z" fill="#FFDA44"/>
<path d="M21.4562 21.4563L20.0559 20.7428L18.9446 21.8541L19.1905 20.3018L17.7903 19.5884L19.3424 19.3425L19.5883 17.7903L20.3017 19.1906L21.8539 18.9446L20.7426 20.056L21.4562 21.4563Z" fill="#FFDA44"/>
<path d="M24.1305 15.0001L22.6358 15.4858V17.0573L21.7121 15.7858L20.2175 16.2715L21.1413 15.0001L20.2175 13.7287L21.7121 14.2144L22.6358 12.9429V14.5145L24.1305 15.0001Z" fill="#FFDA44"/>
<path d="M21.4562 8.54392L20.7427 9.94431L21.8539 11.0555L20.3017 10.8096L19.5883 12.2099L19.3424 10.6577L17.7903 10.4118L19.1905 9.69833L18.9446 8.14624L20.0559 9.25741L21.4562 8.54392Z" fill="#FFDA44"/>
</g>
<defs>
<clipPath id="clip0_113_181">
<rect width="30" height="30" fill="white"/>
</clipPath>
</defs>
</svg>
