<svg width="30" height="30" viewBox="0 0 30 30" fill="none" xmlns="http://www.w3.org/2000/svg">
<g clip-path="url(#clip0_113_242)">
<path d="M15 30C23.2843 30 30 23.2843 30 15C30 6.71573 23.2843 0 15 0C6.71573 0 0 6.71573 0 15C0 23.2843 6.71573 30 15 30Z" fill="#F0F0F0"/>
<path d="M14.9999 0C9.05297 0 3.91453 3.46084 1.48828 8.47828H28.5114C26.0852 3.46084 20.9467 0 14.9999 0Z" fill="black"/>
<path d="M14.9999 30C9.05297 30 3.91453 26.5392 1.48828 21.5217H28.5114C26.0852 26.5392 20.9467 30 14.9999 30Z" fill="#496E2D"/>
<path d="M29.2917 10.4348H0.70834C0.248848 11.8744 0 13.4081 0 15C0 16.592 0.248848 18.1257 0.70834 19.5652H29.2916C29.7512 18.1257 30 16.592 30 15C30 13.4081 29.7512 11.8744 29.2917 10.4348Z" fill="#A2001D"/>
<path d="M19.6707 6.93172L17.8943 6.11182L14.9999 12.6656L12.1055 6.11182L10.3291 6.93172L13.9225 15L10.3291 23.0683L12.1055 23.8882L14.9999 17.3345L17.8943 23.8882L19.6707 23.0683L16.0773 15L19.6707 6.93172Z" fill="#F0F0F0"/>
<path d="M16.2065 7.70444C15.5188 6.95345 15 6.52173 15 6.52173C15 6.52173 14.4811 6.95339 13.7935 7.70444V22.2955C14.4811 23.0466 15 23.4783 15 23.4783C15 23.4783 15.5188 23.0466 16.2065 22.2955V7.70444Z" fill="#F0F0F0"/>
<path d="M11.7393 10.5026V19.4975C12.4659 20.7851 13.3553 21.8404 14.0219 22.5402V7.45996C13.3553 8.15963 12.4659 9.21508 11.7393 10.5026Z" fill="#A2001D"/>
<path d="M18.2609 10.5026C17.5342 9.21502 16.6448 8.15963 15.9783 7.45996V22.5402C16.6448 21.8404 17.5342 20.7851 18.2609 19.4975V10.5026Z" fill="#A2001D"/>
<path d="M18.2607 10.5024V19.4973C18.9964 18.1936 19.5651 16.6521 19.5651 14.9999C19.5651 13.3478 18.9964 11.8062 18.2607 10.5024Z" fill="black"/>
<path d="M11.7392 10.5024V19.4973C11.0035 18.1936 10.4348 16.6521 10.4348 14.9999C10.4348 13.3478 11.0035 11.8062 11.7392 10.5024Z" fill="black"/>
</g>
<defs>
<clipPath id="clip0_113_242">
<rect width="30" height="30" fill="white"/>
</clipPath>
</defs>
</svg>
