<svg width="30" height="30" viewBox="0 0 30 30" fill="none" xmlns="http://www.w3.org/2000/svg">
<g clip-path="url(#clip0_115_1601)">
<path d="M15 30C23.2843 30 30 23.2843 30 15C30 6.71573 23.2843 0 15 0C6.71573 0 0 6.71573 0 15C0 23.2843 6.71573 30 15 30Z" fill="#F0F0F0"/>
<path d="M0 14.9999C0 20.6855 3.16348 25.632 7.82607 28.176V1.82373C3.16348 4.36775 0 9.31424 0 14.9999Z" fill="#D80027"/>
<path d="M29.0671 20.2172C29.67 18.5922 30 16.8346 30 14.9998C30 13.165 29.67 11.4074 29.0671 9.78247H0.933047C0.330059 11.4074 0 13.165 0 14.9998C0 16.8346 0.330059 18.5922 0.933047 20.2172L15 21.5216L29.0671 20.2172Z" fill="#D80027"/>
<path d="M15.0001 29.9999C21.4496 29.9999 26.9477 25.9293 29.0671 20.2173H0.933105C3.05244 25.9293 8.55064 29.9999 15.0001 29.9999Z" fill="#6DA544"/>
<path d="M0 15.0001C0 21.9305 4.70045 27.7621 11.0869 29.4834V0.516846C4.70045 2.2381 0 8.0697 0 15.0001Z" fill="#D80027"/>
<path d="M9.17675 6.60074L7.79329 5.21729L6.87103 6.13967L5.94876 5.21729L4.5653 6.60074L5.48763 7.52307L4.56519 8.44545L5.94864 9.82891L6.87097 8.90652L7.79329 9.82891L9.17675 8.44545L8.25442 7.52307L9.17675 6.60074Z" fill="#F0F0F0"/>
</g>
<defs>
<clipPath id="clip0_115_1601">
<rect width="30" height="30" fill="white"/>
</clipPath>
</defs>
</svg>
