<svg width="30" height="30" viewBox="0 0 30 30" fill="none" xmlns="http://www.w3.org/2000/svg">
<g id="rwanda" clip-path="url(#clip0_115_1595)">
<path id="Vector" d="M0 14.9999C0 17.5985 0.661113 20.0427 1.82385 22.1738L15 23.4782L28.1762 22.1738C29.3389 20.0427 30 17.5985 30 14.9999L15 13.6956L0 14.9999Z" fill="#FFDA44"/>
<path id="Vector_2" d="M28.1762 7.82607C25.6321 3.16342 20.6856 0 15 0C9.31435 0 4.36793 3.16342 1.82385 7.82607C0.661113 9.95719 0 12.4014 0 15H30C30 12.4014 29.3389 9.95719 28.1762 7.82607Z" fill="#338AF3"/>
<path id="Vector_3" d="M14.9999 29.9999C20.6855 29.9999 25.632 26.8365 28.176 22.1738H1.82373C4.36781 26.8365 9.31424 29.9999 14.9999 29.9999Z" fill="#496E2D"/>
<path id="Vector_4" d="M16.9565 8.77848L18.7885 9.64021L17.813 11.4144L19.8023 11.0339L20.0543 13.0434L21.4398 11.5654L22.8255 13.0434L23.0775 11.0339L25.0667 11.4143L24.0913 9.64016L25.9231 8.77848L24.0912 7.91686L25.0667 6.14264L23.0775 6.52314L22.8254 4.51367L21.4398 5.99164L20.0543 4.51367L19.8023 6.52314L17.8129 6.14264L18.7885 7.91691L16.9565 8.77848Z" fill="#FFDA44"/>
</g>
<defs>
<clipPath id="clip0_115_1595">
<rect width="30" height="30" fill="white"/>
</clipPath>
</defs>
</svg>
