<svg width="80" height="81" viewBox="0 0 80 81" fill="none" xmlns="http://www.w3.org/2000/svg">
<g id="south africa" clip-path="url(#clip0_303_2648)">
<path id="Vector" d="M40 80.3179C62.0914 80.3179 80 62.4093 80 40.3179C80 18.2265 62.0914 0.317871 40 0.317871C17.9086 0.317871 0 18.2265 0 40.3179C0 62.4093 17.9086 80.3179 40 80.3179Z" fill="#F0F0F0"/>
<path id="Vector_2" d="M11.7157 68.6024C-3.90523 52.9813 -3.90523 27.6548 11.7157 12.0337C11.7146 12.0354 34.7827 40.3181 34.7827 40.3181L11.7157 68.6024Z" fill="black"/>
<path id="Vector_3" d="M34.7824 40.3178L5.30492 20.3979C4.39102 21.9865 3.58508 23.6447 2.89258 25.3609L17.8159 40.318L2.89305 55.2758C3.58492 56.9908 4.39008 58.6478 5.30336 60.2353L34.7824 40.3178Z" fill="#FFDA44"/>
<path id="Vector_4" d="M79.6615 35.1006H34.7817L11.7154 12.0342C9.2298 14.5198 7.07027 17.3309 5.30527 20.3982L25.1864 40.3179L5.30371 60.2351C7.06871 63.3032 9.22918 66.1153 11.7154 68.6015L34.7817 45.5353H79.6615C79.8839 43.8275 80.0001 42.0862 80.0001 40.3179C80.0001 38.5496 79.8839 36.8084 79.6615 35.1006Z" fill="#6DA544"/>
<path id="Vector_5" d="M15.6465 72.0489C22.3916 77.2336 30.8349 80.3181 39.9999 80.3181C58.481 80.3181 74.032 67.7836 78.622 50.7529H36.9426L15.6465 72.0489Z" fill="#0052B4"/>
<path id="Vector_6" d="M78.622 29.883C74.032 12.8524 58.481 0.317871 39.9999 0.317871C30.8349 0.317871 22.3916 3.4024 15.6465 8.58709L36.9424 29.883H78.622Z" fill="#D80027"/>
</g>
<defs>
<clipPath id="clip0_303_2648">
<rect width="80" height="80" fill="white" transform="translate(0 0.317871)"/>
</clipPath>
</defs>
</svg>
