<svg width="30" height="30" viewBox="0 0 30 30" fill="none" xmlns="http://www.w3.org/2000/svg">
<g id="south korea" clip-path="url(#clip0_115_1596)">
<path id="Vector" d="M15 30C23.2843 30 30 23.2843 30 15C30 6.71573 23.2843 0 15 0C6.71573 0 0 6.71573 0 15C0 23.2843 6.71573 30 15 30Z" fill="#F0F0F0"/>
<path id="Vector_2" d="M20.2174 15.0001C20.2174 16.3044 17.8815 19.5653 15.0001 19.5653C12.1186 19.5653 9.78271 16.3044 9.78271 15.0001C9.78271 12.1186 12.1186 9.78271 15.0001 9.78271C17.8815 9.78271 20.2174 12.1186 20.2174 15.0001Z" fill="#D80027"/>
<path id="Vector_3" d="M20.2174 15C20.2174 17.8815 17.8815 20.2174 15.0001 20.2174C12.1186 20.2174 9.78271 17.8815 9.78271 15" fill="#0052B4"/>
<path id="Vector_4" d="M20.5298 19.6118L21.913 18.2286L22.8352 19.1507L21.452 20.534L20.5298 19.6118Z" fill="black"/>
<path id="Vector_5" d="M18.2236 21.9172L19.6069 20.534L20.5291 21.4562L19.1458 22.8394L18.2236 21.9172Z" fill="black"/>
<path id="Vector_6" d="M23.2964 22.3782L24.6796 20.9949L25.6018 21.9171L24.2186 23.3004L23.2964 22.3782Z" fill="black"/>
<path id="Vector_7" d="M20.9905 24.6841L22.3737 23.3008L23.2959 24.223L21.9127 25.6063L20.9905 24.6841Z" fill="black"/>
<path id="Vector_8" d="M21.9131 20.9951L23.2963 19.6119L24.2185 20.534L22.8353 21.9173L21.9131 20.9951Z" fill="black"/>
<path id="Vector_9" d="M19.6077 23.3005L20.9909 21.9173L21.9131 22.8395L20.5298 24.2227L19.6077 23.3005Z" fill="black"/>
<path id="Vector_10" d="M23.3025 10.3906L19.6138 6.70195L20.536 5.77977L24.2247 9.46845L23.3025 10.3906Z" fill="black"/>
<path id="Vector_11" d="M19.6133 9.46899L18.23 8.08575L19.1522 7.16361L20.5354 8.54686L19.6133 9.46899Z" fill="black"/>
<path id="Vector_12" d="M21.9187 11.7749L20.5355 10.3917L21.4576 9.46952L22.8408 10.8528L21.9187 11.7749Z" fill="black"/>
<path id="Vector_13" d="M22.3794 6.7019L20.9961 5.31866L21.9183 4.39648L23.3016 5.77972L22.3794 6.7019Z" fill="black"/>
<path id="Vector_14" d="M24.686 9.0083L23.3028 7.62505L24.225 6.70287L25.6082 8.08612L24.686 9.0083Z" fill="black"/>
<path id="Vector_15" d="M5.31763 20.9924L9.0063 24.6811L8.08412 25.6033L4.39545 21.9146L5.31763 20.9924Z" fill="black"/>
<path id="Vector_16" d="M9.0061 21.9141L10.3894 23.2973L9.46721 24.2194L8.08397 22.8362L9.0061 21.9141Z" fill="black"/>
<path id="Vector_17" d="M6.70044 19.6089L8.08369 20.9921L7.16151 21.9143L5.77826 20.5311L6.70044 19.6089Z" fill="black"/>
<path id="Vector_18" d="M8.08398 18.2253L11.7727 21.914L10.8505 22.8362L7.16181 19.1475L8.08398 18.2253Z" fill="black"/>
<path id="Vector_19" d="M9.00586 5.31592L5.31718 9.00459L4.395 8.08241L8.08368 4.39374L9.00586 5.31592Z" fill="black"/>
<path id="Vector_20" d="M10.3892 6.69897L6.70048 10.3877L5.7783 9.46547L9.46698 5.7768L10.3892 6.69897Z" fill="black"/>
<path id="Vector_21" d="M11.7737 8.08301L8.08501 11.7717L7.16287 10.8495L10.8515 7.16087L11.7737 8.08301Z" fill="black"/>
</g>
<defs>
<clipPath id="clip0_115_1596">
<rect width="30" height="30" fill="white"/>
</clipPath>
</defs>
</svg>
