<svg width="30" height="30" viewBox="0 0 30 30" fill="none" xmlns="http://www.w3.org/2000/svg">
<g id="tanzania" clip-path="url(#clip0_162_1213)">
<path id="Vector" d="M15 30C23.2843 30 30 23.2843 30 15C30 6.71573 23.2843 0 15 0C6.71573 0 0 6.71573 0 15C0 23.2843 6.71573 30 15 30Z" fill="#FFDA44"/>
<path id="Vector_2" d="M4.39332 25.6066C5.02256 26.2358 5.69393 26.797 6.39816 27.2911L27.2909 6.39822C26.797 5.69398 26.2358 5.02262 25.6065 4.39338C24.9772 3.76414 24.3059 3.20305 23.6017 2.70898L2.70898 23.6018C3.20293 24.3059 3.76414 24.9773 4.39332 25.6066Z" fill="black"/>
<path id="Vector_3" d="M4.39327 4.39344C-0.33888 9.12571 -1.24738 16.2326 1.66608 21.8777L21.8775 1.66631C16.2324 -1.24715 9.12547 -0.338591 4.39327 4.39344Z" fill="#6DA544"/>
<path id="Vector_4" d="M25.6065 25.6066C30.3387 20.8744 31.2471 13.7674 28.3338 8.12231L8.12231 28.3338C13.7673 31.2472 20.8743 30.3387 25.6065 25.6066Z" fill="#338AF3"/>
</g>
<defs>
<clipPath id="clip0_162_1213">
<rect width="30" height="30" fill="white"/>
</clipPath>
</defs>
</svg>
