<svg width="30" height="30" viewBox="0 0 30 30" fill="none" xmlns="http://www.w3.org/2000/svg">
<g clip-path="url(#clip0_115_1603)">
<path d="M15 30C23.2843 30 30 23.2843 30 15C30 6.71573 23.2843 0 15 0C6.71573 0 0 6.71573 0 15C0 23.2843 6.71573 30 15 30Z" fill="#D80027"/>
<path d="M14.3859 12.2568L15.6167 13.9528L17.6098 13.3065L16.3771 15.0011L17.6077 16.697L15.6152 16.0483L14.3826 17.7428L14.3839 15.6474L12.3914 14.9987L14.3846 14.3524L14.3859 12.2568Z" fill="#F0F0F0"/>
<path d="M11.027 19.239C8.68582 19.239 6.78785 17.3411 6.78785 14.9999C6.78785 12.6587 8.68582 10.7608 11.027 10.7608C11.757 10.7608 12.4438 10.9454 13.0434 11.2703C12.1027 10.3502 10.8162 9.78247 9.39656 9.78247C6.51504 9.78247 4.1792 12.1184 4.1792 14.9998C4.1792 17.8813 6.5151 20.2172 9.39656 20.2172C10.8163 20.2172 12.1028 19.6494 13.0434 18.7294C12.4438 19.0544 11.757 19.239 11.027 19.239Z" fill="#F0F0F0"/>
</g>
<defs>
<clipPath id="clip0_115_1603">
<rect width="30" height="30" fill="white"/>
</clipPath>
</defs>
</svg>
