<svg width="30" height="30" viewBox="0 0 30 30" fill="none" xmlns="http://www.w3.org/2000/svg">
<g id="uganda" clip-path="url(#clip0_115_1600)">
<path id="Vector" d="M26.1793 25C28.5548 22.3462 30 18.8421 30 15C30 11.1579 28.5548 7.65383 26.1792 5L15 3.91309L3.82078 5C1.44521 7.65383 0 11.1579 0 15C0 18.8421 1.44516 22.3462 3.82072 25L15 26.087L26.1793 25Z" fill="#FFDA44"/>
<path id="Vector_2" d="M3.8208 4.99998H26.1793C23.4327 1.9316 19.4422 0 15 0C10.5579 0 6.56732 1.9316 3.8208 4.99998Z" fill="black"/>
<path id="Vector_3" d="M0 15L15 16.3044L30 15C30 13.2467 29.6982 11.564 29.1452 10H0.854766C0.301816 11.564 0 13.2467 0 15H0Z" fill="#D80027"/>
<path id="Vector_4" d="M0.854766 20H29.1454C29.6982 18.436 30 16.7534 30 15H0C0 16.7534 0.301816 18.436 0.854766 20Z" fill="black"/>
<path id="Vector_5" d="M26.1794 25H3.8208C6.56732 28.0684 10.5579 30 15.0001 30C19.4423 30 23.4328 28.0684 26.1794 25Z" fill="#D80027"/>
<path id="Vector_6" d="M20.0055 15.0001C20.0055 17.7647 17.7647 20.0055 15.0001 20.0055C12.2354 20.0055 9.99463 17.7647 9.99463 15.0001C9.99463 12.2354 12.2354 9.99463 15.0001 9.99463C17.7647 9.99463 20.0055 12.2354 20.0055 15.0001Z" fill="#F0F0F0"/>
<path id="Vector_7" d="M16.8336 15.2553L14.9999 14.4607C14.9999 14.4607 15.4289 13.0367 15.4518 12.9392C15.4685 12.8681 15.4774 12.7938 15.4774 12.7175C15.4774 12.4474 15.3679 12.2028 15.1908 12.0258L15.6519 11.5647C15.3569 11.2697 14.9493 11.0872 14.499 11.0872C14.0488 11.0872 13.6412 11.2696 13.3461 11.5647L13.8073 12.0258C13.6302 12.2028 13.5207 12.4474 13.5207 12.7175C13.5207 12.8163 13.5357 12.9115 13.5629 13.0015L12.8687 13.6957H14.1305C14.1305 13.6957 13.6088 14.4793 13.324 15.1229C13.0392 15.7663 13.3279 16.5519 13.9862 16.8445L14.3668 17.0137L14.9999 17.6088V18.2609L14.3477 18.9131H15.6521V17.6087L16.2472 17.0136H17.4782C17.4841 17.0013 17.4903 16.9894 17.4959 16.9768C17.7884 16.3186 17.4919 15.5478 16.8336 15.2553Z" fill="black"/>
</g>
<defs>
<clipPath id="clip0_115_1600">
<rect width="30" height="30" fill="white"/>
</clipPath>
</defs>
</svg>
